<svg width="246" height="207" viewBox="0 0 246 207" fill="none" xmlns="http://www.w3.org/2000/svg">
<g clip-path="url(#clip0_277_2)">
<rect width="246" height="207" fill="#C0A3A3"/>
<rect width="1084" height="499" fill="#2D374B"/>
<path d="M66.5896 100.492L71.5368 93.0148L84.871 111.513L84.8773 115.063L84.8338 90.6344C84.8023 90.0373 84.4462 89.491 83.8783 89.1688L59.8716 76.8692C59.3101 76.6234 58.5979 76.626 58.0374 76.8768C57.9617 76.9107 57.8904 76.9474 57.8225 76.9874L57.7389 77.0344L34.4365 89.062L34.346 89.0985C34.2298 89.1461 34.1123 89.2066 34.0019 89.277C33.5602 89.5593 33.2667 89.9766 33.1718 90.4447C33.1576 90.5156 33.1471 90.5879 33.1421 90.6607L33.1787 110.568L45.5989 93.4213C47.1626 91.1476 50.5697 90.4153 53.7324 90.4551L57.4445 90.5424L35.5729 121.784L38.1511 123.107L60.2849 90.5741L70.068 90.5424L47.9913 123.896L57.1912 128.609L58.2904 129.172C58.7553 129.34 59.3034 129.349 59.7723 129.198L84.1164 116.632L79.4621 119.035L66.5896 100.492ZM68.4771 124.705L59.1851 111.715L64.8572 103.142L77.0605 120.274L68.4771 124.705Z" fill="#2D374B"/>
<path d="M59.1852 111.715L68.4772 124.705L77.0608 120.274L64.8575 103.142L59.1852 111.715Z" fill="#28A0F0"/>
<path d="M84.8773 115.063L84.871 111.513L71.5368 93.0147L66.5896 100.491L79.462 119.035L84.1163 116.632C84.5729 116.302 84.849 115.818 84.8781 115.295L84.8773 115.063Z" fill="#28A0F0"/>
<path d="M29.0002 118.411L35.5727 121.784L57.4444 90.5424L53.7323 90.455C50.5695 90.4152 47.1627 91.1475 45.5988 93.4212L33.1785 110.568L29 116.286V118.411H29.0002Z" fill="white"/>
<path d="M70.0679 90.5424L60.285 90.5741L38.1512 123.107L45.8876 127.074L47.9914 123.896L70.0679 90.5424Z" fill="white"/>
<path d="M89 90.4975C88.9183 88.6752 87.8105 87.0068 86.0752 86.0356L61.7539 73.5779C60.0374 72.8079 57.893 72.807 56.1738 73.5773C55.9706 73.6686 32.5217 85.7816 32.5217 85.7816C32.1972 85.9202 31.8847 86.0853 31.5906 86.2726C30.0415 87.2616 29.0972 88.7981 29.0002 90.4864V116.286L33.1787 110.568L33.1421 90.6608C33.1472 90.588 33.1574 90.5165 33.1718 90.4458C33.2661 89.9773 33.5598 89.5595 34.002 89.2772C34.1123 89.2068 57.9616 76.9109 58.0375 76.877C58.5981 76.6262 59.3104 76.6236 59.8717 76.8693L83.8783 89.169C84.4463 89.4911 84.8023 90.0374 84.8339 90.6346V115.295C84.8048 115.818 84.5728 116.302 84.1162 116.633L79.4619 119.035L77.0606 120.274L68.477 124.705L59.7722 129.198C59.3033 129.349 58.7551 129.341 58.2902 129.172L47.9912 123.896L45.8873 127.074L55.1427 131.821C55.4488 131.976 55.7216 132.113 55.9453 132.225C56.2919 132.398 56.5279 132.514 56.6113 132.55C57.2692 132.834 58.2156 133 59.0685 133C59.8506 133 60.613 132.872 61.3346 132.62L86.6181 119.578C88.0693 118.577 88.9231 117.067 89 115.431V90.4975V90.4975Z" fill="#96BEDC"/>
<path d="M186.348 98.2124L198 86.5605L209.658 98.2185L216.438 91.4382L198 73L179.568 91.4323L186.348 98.2124ZM174.78 96.2194L181.56 102.999L174.78 109.78L168 103L174.78 96.2194ZM186.348 107.788L198 119.439L209.658 107.782L216.441 114.558L216.438 114.562L198 133L179.568 114.568L179.558 114.558L186.348 107.788ZM228 103.001L221.22 109.781L214.44 103.001L221.22 96.2206L228 103.001Z" fill="#F0B90B"/>
<path d="M203.994 103.497H203.997L197.5 97L191 103.5L191.009 103.509L197.5 110L204 103.5L203.994 103.497Z" fill="#F0B90B"/>
<path d="M149.803 105.7V98.833C149.891 98.903 149.979 98.98 150.074 99.057L151 97.972C149.476 96.791 148.249 95.3009 147.406 93.6104C146.564 91.9199 146.128 90.0715 146.13 88.2V86.1C146.13 85.543 145.898 85.0089 145.484 84.6151C145.071 84.2212 144.511 84 143.926 84C143.342 84 142.781 84.2212 142.368 84.6151C141.955 85.0089 141.722 85.543 141.722 86.1V88.2C141.722 91.5417 140.329 94.7466 137.85 97.1095C135.37 99.4725 132.007 100.8 128.5 100.8C124.993 100.8 121.63 99.4725 119.15 97.1095C116.671 94.7466 115.278 91.5417 115.278 88.2V86.1C115.278 85.543 115.045 85.0089 114.632 84.6151C114.219 84.2212 113.658 84 113.074 84C112.49 84.0017 111.931 84.2234 111.518 84.6169C111.105 85.0104 110.872 85.5436 110.87 86.1V88.2C110.872 90.0715 110.436 91.9199 109.594 93.6104C108.751 95.3009 107.524 96.791 106 97.972L106.926 99.057C107.021 98.98 107.109 98.903 107.197 98.833V105.7C107.003 105.7 106.816 105.774 106.678 105.905C106.54 106.036 106.463 106.214 106.463 106.4V109.2C106.463 109.386 106.54 109.564 106.678 109.695C106.816 109.826 107.003 109.9 107.197 109.9H110.87V114.8H110.136C109.941 114.8 109.754 114.874 109.616 115.005C109.478 115.136 109.401 115.314 109.401 115.5V117.6H106.463V119H150.537V117.6H147.599V115.5C147.599 115.314 147.522 115.136 147.384 115.005C147.246 114.874 147.059 114.8 146.864 114.8H146.13V109.9H149.803C149.997 109.9 150.184 109.826 150.322 109.695C150.46 109.564 150.537 109.386 150.537 109.2V106.4C150.537 106.214 150.46 106.036 150.322 105.905C150.184 105.774 149.997 105.7 149.803 105.7ZM143.191 86.1C143.191 85.9143 143.269 85.7363 143.407 85.605C143.544 85.4738 143.731 85.4 143.926 85.4C144.121 85.4 144.308 85.4738 144.445 85.605C144.583 85.7363 144.661 85.9143 144.661 86.1V88.2H143.191V86.1ZM143.191 89.6H144.661V91H143.191V89.6ZM143.191 92.4H144.661V95.2H143.191V92.4ZM143.191 96.6H144.661V98H143.191V96.6ZM143.191 99.4H144.661V114.8H143.191V99.4ZM139.519 97.426C140.402 96.473 141.144 95.4083 141.722 94.262V105.7H139.519V97.426ZM135.846 100.303C136.629 99.8769 137.367 99.38 138.049 98.819V105.7H135.846V100.303ZM131.438 101.92C132.448 101.72 133.433 101.42 134.377 101.024V105.7H131.438V101.92ZM127.031 102.13C127.516 102.172 128 102.2 128.5 102.2C129 102.2 129.484 102.172 129.969 102.13V105.7H127.031V102.13ZM122.623 101.024C123.567 101.42 124.552 101.72 125.562 101.92V105.7H122.623V101.024ZM118.951 98.819C119.633 99.38 120.371 99.8769 121.154 100.303V105.7H118.951V98.819ZM115.278 94.262C115.856 95.4083 116.598 96.473 117.481 97.426V105.7H115.278V94.262ZM115.278 107.1H141.722V108.5H115.278V107.1ZM112.339 86.1C112.339 85.9143 112.417 85.7363 112.555 85.605C112.692 85.4738 112.879 85.4 113.074 85.4C113.172 85.3992 113.269 85.4181 113.359 85.4555C113.449 85.4929 113.529 85.5479 113.595 85.617C113.664 85.679 113.719 85.754 113.755 85.8371C113.792 85.9203 113.81 86.0098 113.809 86.1V88.2H112.339V86.1ZM112.339 89.6H113.809V91H112.339V89.6ZM112.339 92.4H113.809V95.2H112.339V92.4ZM112.339 96.6H113.809V98H112.339V96.6ZM112.339 99.4H113.809V114.8H112.339V99.4ZM108.667 97.461C109.547 96.5106 110.288 95.451 110.87 94.311V105.7H108.667V97.461ZM107.932 108.5V107.1H110.87V108.5H107.932ZM115.278 117.6H110.87V116.2H115.278V117.6ZM140.253 115.5V117.6H116.747V115.5C116.747 115.314 116.669 115.136 116.532 115.005C116.394 114.874 116.207 114.8 116.012 114.8H115.278V109.9H141.722V114.8H140.988C140.793 114.8 140.606 114.874 140.468 115.005C140.331 115.136 140.253 115.314 140.253 115.5ZM146.13 117.6H141.722V116.2H146.13V117.6ZM146.13 94.311C146.712 95.451 147.453 96.5106 148.333 97.461V105.7H146.13V94.311ZM149.068 108.5H146.13V107.1H149.068V108.5Z" fill="url(#paint0_linear_277_2)"/>
</g>
<defs>
<linearGradient id="paint0_linear_277_2" x1="128.5" y1="119.552" x2="128.5" y2="83.1943" gradientUnits="userSpaceOnUse">
<stop stop-color="#E93E3A"/>
<stop offset="0.35" stop-color="#ED683C"/>
<stop offset="0.7" stop-color="#F3903F"/>
<stop offset="1" stop-color="#FDC70C"/>
</linearGradient>
<clipPath id="clip0_277_2">
<rect width="246" height="207" fill="white"/>
</clipPath>
</defs>
</svg>
