<svg xmlns="http://www.w3.org/2000/svg" viewBox="0 0 702.34 224.54"><defs><style>.cls-1{fill:#e1227c;}</style></defs><g id="Layer_2" data-name="Layer 2"><g id="Layer_1-2" data-name="Layer 1"><polygon class="cls-1" points="248.92 119.99 224.03 119.99 219.05 124.97 253.9 124.97 248.92 119.99"/><polygon class="cls-1" points="224.03 159.82 248.92 159.82 253.9 154.84 219.05 154.84 224.03 159.82"/><polygon class="cls-1" points="214.07 129.95 214.07 149.86 219.05 154.84 219.05 124.97 214.07 129.95"/><polygon class="cls-1" points="248.92 60.25 224.03 60.25 219.05 65.23 253.9 65.23 248.92 60.25"/><polygon class="cls-1" points="253.9 80.16 248.92 75.19 219.05 75.19 219.05 65.23 214.07 70.21 214.07 90.12 219.05 95.1 219.05 80.16 253.9 80.16"/><polygon class="cls-1" points="248.92 100.08 253.9 95.1 219.05 95.1 224.03 100.08 248.92 100.08"/><polygon class="cls-1" points="473.33 60.25 448.44 60.25 443.46 65.23 478.31 65.23 473.33 60.25"/><polygon class="cls-1" points="478.31 80.16 473.33 75.19 443.46 75.19 443.46 65.23 438.48 70.21 438.48 90.12 443.46 95.1 443.46 80.16 478.31 80.16"/><polygon class="cls-1" points="473.33 100.08 478.31 95.1 443.46 95.1 448.44 100.08 473.33 100.08"/><polygon class="cls-1" points="652.55 65.23 652.55 75.19 622.68 75.19 622.68 65.23 617.7 70.21 617.7 75.19 617.7 80.16 617.7 95.1 622.68 100.08 622.68 80.16 652.55 80.16 652.55 100.08 657.53 95.1 657.53 80.16 657.53 75.19 657.53 70.21 652.55 65.23"/><polygon class="cls-1" points="647.57 60.25 627.66 60.25 622.68 65.23 652.55 65.23 647.57 60.25"/><polygon class="cls-1" points="294.11 124.97 294.11 134.93 264.24 134.93 264.24 124.97 259.26 129.95 259.26 134.93 259.26 139.91 259.26 154.84 264.24 159.82 264.24 139.91 294.11 139.91 294.11 159.82 299.08 154.84 299.08 139.91 299.08 134.93 299.08 129.95 294.11 124.97"/><polygon class="cls-1" points="289.13 119.99 269.21 119.99 264.24 124.97 294.11 124.97 289.13 119.99"/><polygon class="cls-1" points="473.33 124.97 473.33 134.93 443.46 134.93 443.46 124.97 438.48 129.95 438.48 134.93 438.48 139.91 438.48 154.84 443.46 159.82 443.46 139.91 473.33 139.91 473.33 159.82 478.31 154.84 478.31 139.91 478.31 134.93 478.31 129.95 473.33 124.97"/><polygon class="cls-1" points="468.35 119.99 448.44 119.99 443.46 124.97 473.33 124.97 468.35 119.99"/><polygon class="cls-1" points="393.68 95.1 398.65 100.08 398.65 65.23 393.68 70.21 393.68 95.1"/><polygon class="cls-1" points="403.63 60.25 398.65 65.23 428.52 65.23 423.55 60.25 403.63 60.25"/><polygon class="cls-1" points="428.52 65.23 428.52 100.08 433.5 95.1 433.5 70.21 428.52 65.23"/><polygon class="cls-1" points="483.29 95.1 488.26 100.08 488.26 65.23 483.29 70.21 483.29 95.1"/><polygon class="cls-1" points="493.24 60.25 488.26 65.23 518.13 65.23 513.16 60.25 493.24 60.25"/><polygon class="cls-1" points="518.13 65.23 518.13 100.08 523.11 95.1 523.11 70.21 518.13 65.23"/><polygon class="cls-1" points="562.94 60.25 533.07 60.25 528.09 65.23 545.52 65.23 567.92 65.23 562.94 60.25"/><polygon class="cls-1" points="545.52 100.08 550.5 95.1 550.5 70.21 545.52 65.23 545.52 100.08"/><polygon class="cls-1" points="428.52 119.99 398.65 119.99 393.68 124.97 411.1 124.97 433.5 124.97 428.52 119.99"/><polygon class="cls-1" points="411.1 159.82 416.08 154.84 416.08 129.95 411.1 124.97 411.1 159.82"/><polygon class="cls-1" points="348.87 70.21 348.87 90.12 353.85 95.1 353.85 65.23 348.87 70.21"/><polygon class="cls-1" points="378.74 60.25 358.83 60.25 353.85 65.23 383.72 65.23 378.74 60.25"/><polygon class="cls-1" points="358.83 100.08 378.74 100.08 383.72 95.1 353.85 95.1 358.83 100.08"/><polygon class="cls-1" points="383.72 65.23 383.72 95.1 388.7 90.12 388.7 70.21 383.72 65.23"/><polygon class="cls-1" points="338.91 65.23 338.91 80.16 343.89 75.19 343.89 70.21 338.91 65.23"/><polygon class="cls-1" points="309.04 65.23 304.06 70.21 304.06 95.1 309.04 100.08 309.04 85.14 333.93 85.14 338.91 80.16 309.04 80.16 309.04 65.23"/><polygon class="cls-1" points="333.93 60.25 314.02 60.25 309.04 65.23 338.91 65.23 333.93 60.25"/><polygon class="cls-1" points="338.91 124.97 338.91 139.91 343.89 134.93 343.89 129.95 338.91 124.97"/><polygon class="cls-1" points="309.04 124.97 304.06 129.95 304.06 154.84 309.04 159.82 309.04 144.88 333.93 144.88 338.91 139.91 309.04 139.91 309.04 124.97"/><polygon class="cls-1" points="333.93 119.99 314.02 119.99 309.04 124.97 338.91 124.97 333.93 119.99"/><polygon class="cls-1" points="299.08 67.29 299.08 60.25 279.17 80.16 286.21 80.16 299.08 67.29"/><polygon class="cls-1" points="259.26 93.04 259.26 100.08 279.17 80.16 272.13 80.16 259.26 93.04"/><polygon class="cls-1" points="292.04 100.08 299.08 100.08 279.17 80.16 279.17 87.2 292.04 100.08"/><polygon class="cls-1" points="266.3 60.25 259.26 60.25 279.17 80.16 279.17 73.12 266.3 60.25"/><polygon class="cls-1" points="662.51 65.23 662.51 90.12 667.49 95.1 667.49 60.25 662.51 65.23"/><polygon class="cls-1" points="667.49 95.1 672.47 100.08 697.36 100.08 702.34 95.1 667.49 95.1"/><polygon class="cls-1" points="483.29 124.97 483.29 149.86 488.26 154.84 488.26 119.99 483.29 124.97"/><polygon class="cls-1" points="488.26 154.84 493.24 159.82 518.13 159.82 523.11 154.84 488.26 154.84"/><polygon class="cls-1" points="595.3 65.23 612.73 65.23 607.75 60.25 595.3 60.25 590.32 60.25 577.88 60.25 572.9 65.23 590.32 65.23 590.32 95.1 572.9 95.1 577.88 100.08 590.32 100.08 595.3 100.08 607.75 100.08 612.73 95.1 595.3 95.1 595.3 65.23"/><polygon class="cls-1" points="371.27 124.97 388.7 124.97 383.72 119.99 371.27 119.99 366.29 119.99 353.85 119.99 348.87 124.97 366.29 124.97 366.29 154.84 348.87 154.84 353.85 159.82 366.29 159.82 371.27 159.82 383.72 159.82 388.7 154.84 371.27 154.84 371.27 124.97"/><polygon class="cls-1" points="196.09 197.97 111.33 113.21 187.11 37.42 187.11 0 92.62 94.5 37.42 39.3 0 39.3 73.91 113.21 0 187.12 0 224.54 92.62 131.92 158.67 197.97 196.09 197.97"/></g></g></svg>